#N canvas 1839 365 450 300 10;
#X obj 84 268 throw~ a;
#X obj 91 169 osc~;
#X obj 146 146 f;
#X obj 99 222 *~;
#X obj 81 107 mtof;
#X obj 53 37 inlet;
#X obj 88 72 unpack f f;
#X obj 134 188 *~ 0.008;
#X connect 1 0 3 0;
#X connect 2 0 7 0;
#X connect 3 0 0 0;
#X connect 4 0 1 0;
#X connect 5 0 6 0;
#X connect 6 0 4 0;
#X connect 6 1 2 0;
#X connect 7 0 3 1;
