#N canvas 1372 3 964 881 10;
#X obj 58 214 pipe;
#X obj 59 78 print;
#X obj 134 81 unpack f f f f;
#X obj 458 288 realtime;
#X obj 340 96 loadbang;
#X obj 459 222 bng 15 250 50 0 empty empty empty 0 -6 0 8 -262144 -1
-1;
#X msg 226 129 set on;
#X msg 341 143 set off;
#X msg 270 247 on;
#X obj 276 327 print;
#X obj 533 209 dac~;
#X obj 523 104 catch~ a;
#X obj 127 126 pack f f;
#X obj 114 219 pack f f f;
#X obj 87 313 absVoice;
#X obj 87 340 absVoice;
#X obj 87 367 absVoice;
#X obj 88 395 absVoice;
#X obj 545 156 *~ 0.25;
#X obj 86 262 route 1 2 3 4 5 6 7 8 9 10;
#X obj 118 175 poly 10 1;
#X obj 86 421 absVoice;
#X obj 86 448 absVoice;
#X obj 86 475 absVoice;
#X obj 87 503 absVoice;
#X obj 89 532 absVoice;
#X obj 91 556 absVoice;
#X obj 59 49 netreceive 3000 1;
#X connect 2 1 12 0;
#X connect 2 2 12 1;
#X connect 2 3 6 0;
#X connect 2 3 8 0;
#X connect 4 0 7 0;
#X connect 5 0 3 0;
#X connect 5 0 6 0;
#X connect 5 0 8 0;
#X connect 6 0 8 0;
#X connect 7 0 8 0;
#X connect 8 0 9 0;
#X connect 11 0 18 0;
#X connect 12 0 20 0;
#X connect 13 0 19 0;
#X connect 18 0 10 0;
#X connect 19 0 14 0;
#X connect 19 1 15 0;
#X connect 19 2 16 0;
#X connect 19 3 17 0;
#X connect 19 4 21 0;
#X connect 19 5 22 0;
#X connect 19 6 23 0;
#X connect 19 7 24 0;
#X connect 19 8 25 0;
#X connect 19 9 26 0;
#X connect 20 0 13 0;
#X connect 20 1 13 1;
#X connect 20 2 13 2;
#X connect 27 0 1 0;
#X connect 27 0 2 0;
