#N canvas 0 0 450 300 10;
#X obj 159 53 inlet;
#X obj 157 93 unpack f f;
#X obj 158 132 pack f f;
#X obj 159 169 outlet;
#X connect 0 0 1 0;
#X connect 1 0 2 1;
#X connect 1 1 2 0;
#X connect 2 0 3 0;
