#N canvas 0 0 999 454 10;
#X obj 151 16 netreceive 3000 1;
#X obj 242 107 nbx 5 14 -1e+37 1e+37 0 0 empty empty empty 0 -6 0 10
-262144 -1 -1 76 256;
#X obj 150 64 unpack s f;
#X obj 131 108 select on off;
#X obj 178 149 0;
#X obj 188 227 outlet;
#X obj 249 224 outlet;
#X obj 133 152 200;
#X connect 0 0 2 0;
#X connect 1 0 5 0;
#X connect 2 0 3 0;
#X connect 2 1 1 0;
#X connect 3 0 7 0;
#X connect 3 1 4 0;
#X connect 4 0 6 0;
#X connect 7 0 6 0;
