#N canvas 25 92 999 676 10;
#X obj 130 388 *~;
#X obj 160 170 inlet;
#X obj 160 202 unpack f f;
#X obj 130 436 throw~ sum;
#X obj 282 277 nbx 5 14 -1e+37 1e+37 0 0 empty empty volume 0 -6 0
10 -262144 -1 -1 120 256;
#X obj 225 237 select 0;
#X obj 210 279 bng 15 250 50 0 \$0-shut empty noteoff 0 -6 0 12 -262144
-1 -1;
#X obj 316 324 bng 15 250 50 0 \$0-kungfu empty noteon 0 -6 0 12 -262144
-1 -1;
#X obj 152 239 nbx 5 14 -1e+37 1e+37 0 0 \$0-tone empty tone 0 -6 0
10 -262144 -1 -1 74 256;
#N canvas 600 420 999 676 sound 0;
#X obj 132 225 osc~;
#X obj 87 261 outlet~;
#X obj 172 113 osc~;
#X obj 173 141 *~;
#X obj 69 160 +~;
#X obj 83 25 nbx 5 14 -1e+37 1e+37 0 0 empty \$0-tone Tone 0 -6 0 10
-262144 -1 -1 74 256;
#X obj 103 84 mtof;
#X obj 74 116 mtof;
#X obj 80 205 osc~;
#X obj 134 54 + 12;
#X obj 133 166 +~;
#X obj 185 31 f;
#X obj 187 -7 r modulator-freq;
#X obj 245 40 r modulator-amount;
#X obj 244 76 f;
#X connect 0 0 1 0;
#X connect 2 0 3 0;
#X connect 3 0 4 1;
#X connect 3 0 10 1;
#X connect 4 0 8 0;
#X connect 5 0 7 0;
#X connect 5 0 9 0;
#X connect 6 0 10 0;
#X connect 7 0 4 0;
#X connect 8 0 1 0;
#X connect 9 0 6 0;
#X connect 10 0 0 0;
#X connect 11 0 2 0;
#X connect 12 0 11 0;
#X connect 13 0 14 0;
#X connect 14 0 3 1;
#X restore 22 280 pd sound;
#N canvas 584 338 356 274 envelope 0;
#X obj 130 183 vline~;
#X obj 81 50 r a;
#X obj 67 65 f;
#X obj 131 48 r s;
#X obj 122 61 f;
#X obj 173 54 f;
#X obj 189 42 r d;
#X obj 81 5 bng 15 250 50 0 empty \$0-kungfu noteon 0 -6 0 10 -262144
-1 -1;
#X obj 237 16 bng 15 250 50 0 empty \$0-shut noteoff 0 -6 0 10 -262144
-1 -1;
#X obj 35 72 1;
#X obj 247 68 f;
#X obj 213 65 0;
#X obj 263 58 r r;
#X obj 238 137 pack f f;
#X obj 78 139 pack f f;
#X obj 147 139 pack f f f;
#X obj 136 224 outlet~;
#X connect 0 0 16 0;
#X connect 1 0 2 1;
#X connect 2 0 14 1;
#X connect 2 0 15 2;
#X connect 3 0 4 1;
#X connect 4 0 15 0;
#X connect 5 0 15 1;
#X connect 6 0 5 1;
#X connect 7 0 2 0;
#X connect 7 0 5 0;
#X connect 7 0 9 0;
#X connect 7 0 4 0;
#X connect 8 0 10 0;
#X connect 8 0 11 0;
#X connect 9 0 14 0;
#X connect 10 0 13 1;
#X connect 11 0 13 0;
#X connect 12 0 10 1;
#X connect 13 0 0 0;
#X connect 14 0 0 0;
#X connect 15 0 0 0;
#X restore 103 281 pd envelope;
#X obj 175 338 *~;
#X obj 131 410 *~ 0.03;
#N canvas 25 92 999 676 stoej 1;
#X obj 95 76 noise~;
#X obj 117 314 outlet~;
#X obj 131 114 nbx 5 14 -1e+37 1e+37 0 0 empty \$0-tone empty 0 -6
0 10 -262144 -1 -1 74 256;
#X obj 144 145 mtof;
#X obj 211 184 nbx 5 14 -1e+37 1e+37 0 0 empty q empty 0 -6 0 10 -262144
-1 -1 1431.22 256;
#X obj 139 260 *~;
#X obj 212 212 + 1;
#X obj 311 85 osc~;
#X obj 312 113 *~;
#X obj 148 174 +~;
#X obj 304 53 f;
#X obj 306 15 r modulator-freq;
#X obj 358 50 r modulator-amount;
#X obj 357 86 f;
#X obj 137 216 vcf~;
#X obj 200 236 sqrt;
#X obj 138 284 *~ 3;
#X connect 0 0 14 0;
#X connect 2 0 3 0;
#X connect 3 0 9 0;
#X connect 4 0 6 0;
#X connect 4 0 14 2;
#X connect 5 0 16 0;
#X connect 6 0 15 0;
#X connect 7 0 8 0;
#X connect 8 0 9 1;
#X connect 9 0 14 1;
#X connect 10 0 7 0;
#X connect 11 0 10 0;
#X connect 12 0 13 0;
#X connect 13 0 8 1;
#X connect 14 0 5 0;
#X connect 15 0 5 1;
#X connect 16 0 1 0;
#X restore 19 306 pd stoej;
#X connect 0 0 12 0;
#X connect 1 0 2 0;
#X connect 2 0 8 0;
#X connect 2 1 5 0;
#X connect 4 0 11 1;
#X connect 4 0 7 0;
#X connect 5 0 6 0;
#X connect 5 1 4 0;
#X connect 10 0 11 0;
#X connect 11 0 0 1;
#X connect 12 0 3 0;
#X connect 13 0 0 0;
