#N canvas 1892 97 576 635 10;
#X obj 59 78 print;
#X obj 134 81 unpack f f f f;
#X obj 127 126 pack f f;
#X obj 114 219 pack f f f;
#X obj 86 262 route 1 2 3 4 5 6 7 8 9 10;
#X obj 59 49 netreceive 3000 1;
#X obj 87 313 absVoice;
#X obj 351 294 nbx 5 14 -1e+37 1e+37 0 1 modulator-freq empty freq
0 -6 0 10 -262144 -1 -1 67 256;
#X obj 350 342 nbx 5 14 -1e+37 1e+37 0 1 modulator-amount empty amount
0 -6 0 10 -262144 -1 -1 38 256;
#X obj 484 199 vsl 15 128 0 1 0 1 s s S 0 -8 0 12 -225280 -90881 -1
0 1;
#X obj 511 202 vsl 15 128 1 2000 0 1 r r R 0 -8 0 12 -261689 -90881
-1 600 1;
#X obj 456 198 vsl 15 128 20 20000 1 1 d d D 0 -8 0 12 -228992 -42246
-1 9000 1;
#X obj 430 198 vsl 15 128 1 20000 1 1 a a A 0 -8 0 12 -257472 -90133
-1 1000 0;
#X obj 409 151 bng 20 250 50 0 empty empty RESET -10 -6 0 10 -262144
-262144 -1;
#X obj 349 377 nbx 5 14 1 1000 1 1 q empty empty 0 -6 0 10 -262144
-1 -1 399.542 256;
#X obj 119 179 poly 10 1;
#N canvas 1580 411 470 297 output 0;
#X obj 95 -27 dac~;
#X obj 95 -52 *~ 0.05;
#X obj 94 -78 catch~ sum;
#X connect 1 0 0 0;
#X connect 2 0 1 0;
#X coords 0 0 1 1 100 100 0;
#X restore 215 133 pd output;
#X obj 86 448 absVoice;
#X obj 87 367 absVoice;
#X obj 87 340 absVoice;
#X obj 88 395 absVoice;
#X obj 86 421 absVoice;
#X obj 86 475 absVoice;
#X obj 87 503 absVoice;
#X obj 89 532 absVoice;
#X obj 91 556 absVoice;
#X connect 1 1 2 0;
#X connect 1 2 2 1;
#X connect 2 0 15 0;
#X connect 3 0 4 0;
#X connect 4 0 6 0;
#X connect 4 1 19 0;
#X connect 4 2 18 0;
#X connect 4 3 20 0;
#X connect 4 4 21 0;
#X connect 4 5 17 0;
#X connect 4 6 22 0;
#X connect 4 7 23 0;
#X connect 4 8 24 0;
#X connect 4 9 25 0;
#X connect 5 0 0 0;
#X connect 5 0 1 0;
#X connect 13 0 7 0;
#X connect 13 0 8 0;
#X connect 13 0 12 0;
#X connect 13 0 11 0;
#X connect 13 0 9 0;
#X connect 13 0 10 0;
#X connect 13 0 14 0;
#X connect 15 0 3 0;
#X connect 15 1 3 1;
#X connect 15 2 3 2;
