#N canvas 1372 3 495 599 10;
#X obj 59 78 print;
#X obj 134 81 unpack f f f f;
#X obj 332 208 dac~;
#X obj 127 126 pack f f;
#X obj 114 219 pack f f f;
#X obj 344 155 *~ 0.25;
#X obj 86 262 route 1 2 3 4 5 6 7 8 9 10;
#X obj 59 49 netreceive 3000 1;
#X obj 87 313 Coolpatch;
#X obj 322 103 catch~ sum;
#X obj 87 367 Coolpatch;
#X obj 87 340 Coolpatch;
#X obj 88 395 Coolpatch;
#X obj 86 421 Coolpatch;
#X obj 86 448 Coolpatch;
#X obj 86 475 Coolpatch;
#X obj 87 503 Coolpatch;
#X obj 89 532 Coolpatch;
#X obj 91 556 Coolpatch;
#X obj 119 179 poly 1 1;
#X connect 1 1 3 0;
#X connect 1 2 3 1;
#X connect 3 0 19 0;
#X connect 4 0 6 0;
#X connect 5 0 2 0;
#X connect 6 0 8 0;
#X connect 6 1 11 0;
#X connect 6 2 10 0;
#X connect 6 3 12 0;
#X connect 6 4 13 0;
#X connect 6 5 14 0;
#X connect 6 6 15 0;
#X connect 6 7 16 0;
#X connect 6 8 17 0;
#X connect 6 9 18 0;
#X connect 7 0 0 0;
#X connect 7 0 1 0;
#X connect 9 0 5 0;
#X connect 19 0 4 0;
#X connect 19 1 4 1;
#X connect 19 2 4 2;
