#N canvas 1892 97 495 599 10;
#X obj 59 78 print;
#X obj 134 81 unpack f f f f;
#X obj 332 208 dac~;
#X obj 127 126 pack f f;
#X obj 114 219 pack f f f;
#X obj 86 262 route 1 2 3 4 5 6 7 8 9 10;
#X obj 59 49 netreceive 3000 1;
#X obj 322 103 catch~ sum;
#X obj 87 313 absVoice;
#X obj 86 448 absVoice;
#X obj 87 367 absVoice;
#X obj 87 340 absVoice;
#X obj 88 395 absVoice;
#X obj 86 421 absVoice;
#X obj 86 475 absVoice;
#X obj 87 503 absVoice;
#X obj 89 532 absVoice;
#X obj 91 556 absVoice;
#X obj 119 179 poly 10 1;
#X obj 344 155 *~ 0.05;
#X connect 1 1 3 0;
#X connect 1 2 3 1;
#X connect 3 0 18 0;
#X connect 4 0 5 0;
#X connect 5 0 8 0;
#X connect 5 1 11 0;
#X connect 5 2 10 0;
#X connect 5 3 12 0;
#X connect 5 4 13 0;
#X connect 5 5 9 0;
#X connect 5 6 14 0;
#X connect 5 7 15 0;
#X connect 5 8 16 0;
#X connect 5 9 17 0;
#X connect 6 0 0 0;
#X connect 6 0 1 0;
#X connect 7 0 19 0;
#X connect 18 0 4 0;
#X connect 18 1 4 1;
#X connect 18 2 4 2;
#X connect 19 0 2 0;
